<svg width="32" height="32" viewBox="0 0 32 32" fill="none" xmlns="http://www.w3.org/2000/svg">
<path d="M32 16.0962C31.9995 13.0197 31.1229 10.0078 29.474 7.41708C27.8251 4.82631 25.473 2.76516 22.6961 1.47765C19.9192 0.190138 16.8337 -0.269825 13.8051 0.152213C10.7764 0.574252 7.93135 1.86062 5.60671 3.85903C3.28206 5.85744 1.57518 8.4842 0.688134 11.4283C-0.198913 14.3725 -0.22898 17.5107 0.601493 20.4715C1.43197 23.4323 3.0882 26.0917 5.37412 28.1348C7.66005 30.178 10.4799 31.5193 13.4999 32V20.7503H9.43582V16.0962H13.4999V12.5495C13.4999 8.51512 15.8869 6.28611 19.5431 6.28611C20.7429 6.30281 21.9399 6.40773 23.1246 6.60004V10.5623H21.1051C20.7613 10.5164 20.4117 10.5489 20.0821 10.6574C19.7525 10.7659 19.4513 10.9476 19.201 11.1891C18.9506 11.4305 18.7574 11.7256 18.6358 12.0523C18.5141 12.3791 18.467 12.7292 18.498 13.0768V16.0982H22.9358L22.229 20.7523H18.5001V32C22.2633 31.3997 25.6904 29.4683 28.165 26.5531C30.6396 23.6379 31.9994 19.93 32 16.0962Z" fill="#222222"/>
</svg>
