<svg width="32" height="32" viewBox="0 0 32 32" fill="none" xmlns="http://www.w3.org/2000/svg">
<path d="M29.25 0H2.24303C1.64468 0.00449381 1.07253 0.246094 0.652057 0.671818C0.231581 1.09754 -0.00290215 1.67264 2.71188e-05 2.271V29.229C-0.00290215 29.8274 0.231581 30.4025 0.652057 30.8282C1.07253 31.2539 1.64468 31.4955 2.24303 31.5H29.25C29.8491 31.4958 30.4221 31.2545 30.8438 30.8289C31.2654 30.4033 31.5014 29.8281 31.5 29.229V2.271C31.5014 1.67192 31.2654 1.09668 30.8438 0.671099C30.4221 0.245519 29.8491 0.00422859 29.25 0ZM9.52003 27H4.85203V11.967H9.52703V27H9.52003ZM7.18603 9.914C6.65063 9.914 6.12726 9.75524 5.6821 9.45779C5.23693 9.16034 4.88997 8.73756 4.68509 8.24292C4.4802 7.74828 4.42659 7.204 4.53104 6.67889C4.63549 6.15378 4.89331 5.67144 5.27189 5.29286C5.65047 4.91428 6.13281 4.65646 6.65792 4.55201C7.18302 4.44756 7.72731 4.50117 8.22195 4.70606C8.71659 4.91094 9.13937 5.25791 9.43682 5.70307C9.73426 6.14824 9.89303 6.67161 9.89303 7.207C9.89276 7.92486 9.60748 8.61324 9.09987 9.12085C8.59227 9.62845 7.90389 9.91373 7.18603 9.914ZM27.021 27H22.352V19.688C22.352 17.944 22.317 15.701 19.926 15.701C17.493 15.701 17.121 17.601 17.121 19.561V27H12.452V11.967H16.931V14.02H16.994C17.4434 13.2538 18.0919 12.6237 18.8707 12.1966C19.6495 11.7694 20.5294 11.5612 21.417 11.594C26.142 11.594 27.017 14.709 27.017 18.759L27.021 27Z" fill="black"/>
</svg>
