<svg width="32" height="32" viewBox="0 0 32 32" fill="none" xmlns="http://www.w3.org/2000/svg">
<path d="M15.758 7.67C14.1601 7.67 12.5981 8.14382 11.2695 9.03156C9.94096 9.91929 8.90546 11.1811 8.29398 12.6573C7.6825 14.1335 7.52251 15.758 7.83424 17.3251C8.14597 18.8923 8.91542 20.3318 10.0453 21.4617C11.1752 22.5916 12.6147 23.361 14.1819 23.6728C15.749 23.9845 17.3735 23.8245 18.8497 23.213C20.3259 22.6015 21.5877 21.566 22.4754 20.2375C23.3632 18.9089 23.837 17.3469 23.837 15.749C23.8387 14.6876 23.6309 13.6362 23.2255 12.6553C22.8201 11.6743 22.2251 10.783 21.4745 10.0325C20.724 9.28192 19.8327 8.68689 18.8517 8.28149C17.8708 7.87609 16.8194 7.66829 15.758 7.67ZM15.758 21.001C14.7193 21.001 13.7038 20.693 12.8401 20.1159C11.9765 19.5388 11.3033 18.7185 10.9058 17.7589C10.5083 16.7992 10.4043 15.7432 10.6069 14.7244C10.8096 13.7056 11.3098 12.7698 12.0443 12.0353C12.7788 11.3008 13.7146 10.8006 14.7334 10.5979C15.7522 10.3953 16.8082 10.4993 17.7679 10.8968C18.7275 11.2943 19.5478 11.9675 20.1249 12.8311C20.702 13.6948 21.01 14.7103 21.01 15.749C21.0074 17.1411 20.4532 18.4754 19.4688 19.4598C18.4844 20.4442 17.1501 20.9984 15.758 21.001ZM26.052 7.34C26.052 7.71258 25.9415 8.07679 25.7346 8.38659C25.5276 8.69639 25.2334 8.93787 24.8892 9.08049C24.545 9.22312 24.1663 9.26049 23.8008 9.18787C23.4354 9.11526 23.0997 8.93592 22.8362 8.67254C22.5726 8.40916 22.3931 8.07356 22.3203 7.70816C22.2475 7.34277 22.2847 6.96399 22.4271 6.61972C22.5696 6.27544 22.8109 5.98113 23.1206 5.774C23.4303 5.56686 23.7944 5.4562 24.167 5.456C24.4146 5.45534 24.66 5.50361 24.8889 5.59805C25.1178 5.69248 25.3259 5.83122 25.501 6.00628C25.6762 6.18134 25.815 6.38929 25.9096 6.61817C26.0041 6.84705 26.0525 7.09236 26.052 7.34ZM31.401 9.256C31.4524 6.80713 30.5382 4.43637 28.856 2.656C27.072 0.979492 24.7037 0.066246 22.256 0.111C19.656 -0.037 11.856 -0.037 9.256 0.111C6.80902 0.0628654 4.44027 0.973758 2.656 2.649C0.976644 4.43118 0.0629336 6.80072 0.111 9.249C-0.037 11.849 -0.037 19.649 0.111 22.249C0.0595955 24.6979 0.973777 27.0686 2.656 28.849C4.44071 30.5243 6.80855 31.4374 9.256 31.394C11.856 31.542 19.656 31.542 22.256 31.394C24.7049 31.4454 27.0756 30.5312 28.856 28.849C30.5325 27.065 31.4458 24.6967 31.401 22.249C31.549 19.649 31.549 11.857 31.401 9.255V9.256ZM28.042 25.037C27.7746 25.7162 27.3702 26.333 26.8541 26.8491C26.338 27.3652 25.7212 27.7696 25.042 28.037C22.968 28.86 18.042 28.67 15.754 28.67C13.466 28.67 8.533 28.853 6.466 28.037C5.78684 27.7696 5.17 27.3652 4.65388 26.8491C4.13775 26.333 3.7334 25.7162 3.466 25.037C2.643 22.963 2.833 18.037 2.833 15.749C2.833 13.461 2.65 8.528 3.466 6.461C3.7334 5.78184 4.13775 5.165 4.65388 4.64888C5.17 4.13275 5.78684 3.7284 6.466 3.461C8.54 2.638 13.466 2.828 15.754 2.828C18.042 2.828 22.975 2.645 25.042 3.461C25.7212 3.7284 26.338 4.13275 26.8541 4.64888C27.3702 5.165 27.7746 5.78184 28.042 6.461C28.865 8.535 28.675 13.461 28.675 15.749C28.675 18.037 28.864 22.97 28.042 25.037Z" fill="#222222"/>
</svg>
