<svg width="45" height="32" viewBox="0 0 45 32" fill="none" xmlns="http://www.w3.org/2000/svg">
<path d="M43.864 4.929C43.6108 3.97584 43.1116 3.10592 42.4165 2.40637C41.7213 1.70682 40.8545 1.20218 39.903 0.943C36.409 -1.78814e-07 22.4 0 22.4 0C22.4 0 8.391 -5.96046e-08 4.9 0.942C3.94777 1.20081 3.08032 1.70539 2.38458 2.40516C1.68885 3.10493 1.1893 3.97529 0.936 4.929C0 8.445 0 15.782 0 15.782C0 15.782 0 23.119 0.936 26.635C1.19105 27.5804 1.69191 28.4414 2.38764 29.1305C3.08338 29.8195 3.94918 30.3121 4.897 30.558C8.391 31.5 22.4 31.5 22.4 31.5C22.4 31.5 36.409 31.5 39.9 30.558C40.8478 30.3121 41.7136 29.8195 42.4094 29.1305C43.1051 28.4414 43.6059 27.5804 43.861 26.635C44.797 23.119 44.797 15.782 44.797 15.782C44.797 15.782 44.797 8.445 43.861 4.929H43.864ZM17.818 22.443V9.121L29.527 15.782L17.818 22.443Z" fill="#222222"/>
</svg>
